<svg xmlns="http://www.w3.org/2000/svg" viewBox="0.02603912353515625 -0.019503116607666016 108.4056396484375 108.71894836425781"><title>OpenCommerce</title><path d="M18.49 14.21A48.45 48.45 0 0 1 45.44.76a52.45 52.45 0 0 1 33.67 5.38c16.36 8.61 19.7 29 7.06 42.5-1.17 1.25-2.25 2.57-3.79 4.36-3.61-3.78-6.79-7.2-10.08-10.53-6.71-6.81-13.49-13.56-20.23-20.35-9.2-9.28-19.94-12.34-32.5-8.15-.35.09-.72.15-1.08.24z" fill="#fbb355"></path><path d="M26.36 55.58c2.12 2.43 3.83 4.62 5.77 6.59 7.25 7.36 14.77 14.47 21.81 22C64 95 75.61 99.55 90.31 94.62a24.55 24.55 0 0 1-1.9 1.78c-18.14 13.78-37.71 16.07-58.27 6.42-17-7.95-20.7-28.83-8.07-42.66 1.15-1.26 2.34-2.5 4.29-4.58z" fill="#8a56c2"></path><path d="M14.43 91.13a54.29 54.29 0 0 1-9.12-60.19c8.48-17.94 29.56-21.76 43.85-8 1 1 2.14 1.89 3.77 3.32-5.06 4.87-9.75 9.34-14.37 13.88Q30 48.56 21.49 57.1c-9.18 9.23-11.69 20-7.42 32.35.09.25.12.55.36 1.68z" fill="#53b0fb"></path><path d="M94.24 18.43a49.59 49.59 0 0 1 13.67 28.51 53.73 53.73 0 0 1-5.66 32.49 26.7 26.7 0 0 1-41.93 7.29c-1.39-1.3-2.9-2.48-4.55-3.87 1.18-1.25 1.87-2 2.59-2.73q14.19-14.19 28.39-28.37c9.2-9.18 11.92-19.9 7.74-32.28a9.26 9.26 0 0 1-.25-1.04z" fill="#fa6663"></path></svg>